<svg xmlns="http://www.w3.org/2000/svg" xmlns:xlink="http://www.w3.org/1999/xlink" width="400" height="382.378" viewBox="0 0 400 382.378">
  <defs>
    <clipPath id="clip-path">
      <rect id="Rectangle_143" data-name="Rectangle 143" width="400" height="382.378"/>
    </clipPath>
  </defs>
  <g id="Group_612" data-name="Group 612" opacity="0.04" clip-path="url(#clip-path)">
    <path id="Path_38" data-name="Path 38" d="M185.381,10.5c-.453-.151-.84-.589-1.736-.247-2.6.99-1.113,2.849,1.116,2.353,1.77-.758,2.106-1.611.62-2.106" transform="translate(11.822 0.657)"/>
    <path id="Path_39" data-name="Path 39" d="M182.152,30.274c-1.735-.372-1.487.991-1.363,1.363Z" transform="translate(11.72 1.959)"/>
    <path id="Path_40" data-name="Path 40" d="M185.273,27.837c.451-1.085-.991.248-1.24.867-.372,1.983.248,2.478,1.983,1.734l1.115-.246c.5-1.363.62-.868-.991-.868,0,0-1.487,0-.867-1.487" transform="translate(11.93 1.779)"/>
    <path id="Path_41" data-name="Path 41" d="M189.952,28.315c-.742-.619-1.981-1.115-1.734.247l1.3.488Z" transform="translate(12.206 1.796)"/>
    <path id="Path_42" data-name="Path 42" d="M163.733,42.746c1.491-.745-1.115-.744-2.973-.62.991,1.734,1.735,1.239,2.973.62" transform="translate(10.427 2.728)"/>
    <path id="Path_43" data-name="Path 43" d="M153.053,40.534c-1.363-.991-2.107-.743-3.346-.124,1.488,1.61,2.479.867,2.479.867Z" transform="translate(9.71 2.586)"/>
    <path id="Path_44" data-name="Path 44" d="M143.126,41.541c-2.5,0-1.115.372-2.726,2.725l.125.991c2.353-.62,1.858-.248,3.221-2.354.5-1.115,0-1.362-.62-1.362" transform="translate(9.106 2.694)"/>
    <path id="Path_45" data-name="Path 45" d="M145.748,40.869c-.428-1.428-1.857.991-1.857.991s2.23.248,1.857-.991" transform="translate(9.333 2.622)"/>
    <path id="Path_46" data-name="Path 46" d="M136.663,45.729l-1.487.5c-.5,1.981.124,2.724.99,3.468,1.983-2.231.743-2.231.5-3.964" transform="translate(8.756 2.966)"/>
    <path id="Path_47" data-name="Path 47" d="M135.016,49.8l-1.363,1.735s0,1.61,2.478,3.221c1.115-.372.372-.249-.125-2.23.023.4.62-2.6-.99-2.726" transform="translate(8.669 3.23)"/>
    <path id="Path_48" data-name="Path 48" d="M140.638,62.049c-1.487-.619-1.115-.867-1.982.125,1.362.99,1.982.5,1.982.5Z" transform="translate(8.993 3.989)"/>
    <path id="Path_49" data-name="Path 49" d="M214.694,42.178c-1.489-.745,1.117-.743,2.975-.62-.992,1.736-1.736,1.239-2.975.62" transform="translate(13.897 2.691)"/>
    <path id="Path_50" data-name="Path 50" d="M225.371,39.967c1.363-.99,2.107-.743,3.347-.125-1.488,1.611-2.48.868-2.48.868Z" transform="translate(14.618 2.549)"/>
    <path id="Path_51" data-name="Path 51" d="M235.31,40.973c2.507,0,1.115.372,2.727,2.726l-.125.99c-2.355-.619-1.859-.247-3.222-2.354-.5-1.115,0-1.362.62-1.362" transform="translate(15.209 2.658)"/>
    <path id="Path_52" data-name="Path 52" d="M232.588,40.3c.427-1.43,1.858.99,1.858.99s-2.232.248-1.858-.99" transform="translate(15.083 2.585)"/>
    <path id="Path_53" data-name="Path 53" d="M241.7,45.162l1.487.5c.5,1.982-.125,2.725-.992,3.468-1.981-2.23-.741-2.23-.494-3.963" transform="translate(15.637 2.929)"/>
    <path id="Path_54" data-name="Path 54" d="M243.389,49.233l1.363,1.735s0,1.611-2.477,3.221c-1.115-.371-.372-.247.125-2.23-.022.4-.62-2.6.989-2.726" transform="translate(15.676 3.193)"/>
    <path id="Path_55" data-name="Path 55" d="M237.7,61.481c1.485-.619,1.113-.867,1.982.125-1.363.99-1.982.5-1.982.5Z" transform="translate(15.418 3.953)"/>
    <path id="Path_56" data-name="Path 56" d="M136.622,69.462c-.867,1.487-.373,1.115-.992,2.106.248,1.857.744,2.229,1.735,1.114,0-1.238-.619-.867.125-1.982Z" transform="translate(8.797 4.505)"/>
    <path id="Path_57" data-name="Path 57" d="M136.126,75.4l-.5,1.24a3.7,3.7,0,0,1,.62,2.106c.868.494,1.488.867,1.362-.868-.494-.619-.247-1.116-1.114-1.362Z" transform="translate(8.797 4.89)"/>
    <path id="Path_58" data-name="Path 58" d="M137.033,79.583a1.1,1.1,0,0,0,.867,1.611Z" transform="translate(8.881 5.162)"/>
    <path id="Path_59" data-name="Path 59" d="M137.514,81.794c-.372.5-.619.372,0,1.238.992-.5.62-.991.62-.991Z" transform="translate(8.895 5.305)"/>
    <path id="Path_60" data-name="Path 60" d="M242.367,69.462c.869,1.487.372,1.115.989,2.106-.246,1.857-.742,2.229-1.736,1.114,0-1.238.62-.867-.121-1.982Z" transform="translate(15.664 4.505)"/>
    <path id="Path_61" data-name="Path 61" d="M242.87,75.4l.494,1.24a3.712,3.712,0,0,0-.619,2.106c-.867.494-1.486.867-1.361-.868.494-.619.244-1.116,1.115-1.362Z" transform="translate(15.655 4.89)"/>
    <path id="Path_62" data-name="Path 62" d="M241.9,79.583a1.1,1.1,0,0,1-.867,1.611Z" transform="translate(15.634 5.162)"/>
    <path id="Path_63" data-name="Path 63" d="M241.427,81.794c.372.5.618.372,0,1.238-.995-.5-.622-.991-.622-.991Z" transform="translate(15.614 5.305)"/>
    <path id="Path_64" data-name="Path 64" d="M139.915,94.593c-1.028.256.123,1.858-.62,1.734.247,2.106.991.991.743,2.973l.867.249c-.123-1.736,0-3.594.991-2.726.124-1.363-.991-2.478-1.982-2.23" transform="translate(9.035 6.133)"/>
    <path id="Path_65" data-name="Path 65" d="M140.488,103.949c-1.446.965.743,1.736,1.116,3.221v1.363l1.238.125c-.5-1.983.5-1.983-.743-4.461-.248-1.982-.868-.743-1.611-.248" transform="translate(9.08 6.688)"/>
    <path id="Path_66" data-name="Path 66" d="M142.207,110.56a2.327,2.327,0,0,0,1.238,2.727c1.61-.249.619-.745.372-1.612,0-1.487-1.448-2.172-1.61-1.115" transform="translate(9.22 7.138)"/>
    <path id="Path_67" data-name="Path 67" d="M145.472,114.642c-.638.637.62,1.362.373,2.23,2.105.866,2.724-.125,3.467,0l.372-.991c-2.229-.124-2.229-.62-2.849-1.362-.62-.992-.868-.373-1.363.124" transform="translate(9.424 7.393)"/>
    <path id="Path_68" data-name="Path 68" d="M238.626,94.527c1.025.257-.126,1.858.618,1.735-.245,2.106-.99.991-.743,2.973l-.868.247c.125-1.735,0-3.593-.991-2.724-.123-1.363.991-2.478,1.985-2.231" transform="translate(15.348 6.129)"/>
    <path id="Path_69" data-name="Path 69" d="M238.064,103.883c1.448.965-.743,1.736-1.114,3.221v1.363l-1.236.125c.492-1.982-.5-1.982.742-4.461.245-1.982.865-.743,1.608-.248" transform="translate(15.289 6.684)"/>
    <path id="Path_70" data-name="Path 70" d="M236.306,110.494a2.321,2.321,0,0,1-1.235,2.727c-1.614-.249-.622-.744-.373-1.611,0-1.488,1.446-2.172,1.608-1.116" transform="translate(15.188 7.134)"/>
    <path id="Path_71" data-name="Path 71" d="M233.177,114.576c.637.638-.622,1.363-.372,2.23-2.106.866-2.726-.125-3.469,0l-.373-.992c2.231-.122,2.231-.619,2.851-1.361.621-.991.866-.373,1.363.124" transform="translate(14.851 7.389)"/>
    <path id="Path_72" data-name="Path 72" d="M172.219,69.229c.991.124.5.124,1.238.373a6.014,6.014,0,0,0,0,1.487,1.622,1.622,0,0,0-1.238-.373Z" transform="translate(11.17 4.49)"/>
    <path id="Path_73" data-name="Path 73" d="M174.473,72.37c-.743.248-.867.62-.5.866.992-.122.5-.866.5-.866" transform="translate(11.271 4.694)"/>
    <path id="Path_74" data-name="Path 74" d="M202.6,61.24c1.61-.743,2.23-.867,3.223-.124l-.25.618a9.881,9.881,0,0,1-3.221.126Z" transform="translate(13.125 3.932)"/>
    <path id="Path_75" data-name="Path 75" d="M152.66,114.6a3.177,3.177,0,0,1-1.735,0,8.922,8.922,0,0,0,.743-4.213,5.92,5.92,0,0,0-1.734-.619,7.284,7.284,0,0,0,1.734-5.893c-2.353-.054-2.23.565-.866-2.035a9.717,9.717,0,0,0,2.353-5.026,35.189,35.189,0,0,1,4.708-11.708V75.074c-1.488,1.858-5.266,5.018-4.337,6.5,3.346-.743,2.6,1.3.929,3.345.745,5.018-.742,10.592-7.432,13.751,1.115,2.6,1.115,3.717-.557,5.2,1.485,1.115,2.043,2.045,1.3,4.645a2.94,2.94,0,0,1-1.115,3.532c2.6,1.3,2.973,4.645,3.158,5.573s0,.559,0,.559l1.858,1.858c1.858,1.115,1.178,3.229,4.521,2.113-.371-1.487-.122-2.106,2.851-2.849,5.045.158,6.6,6.409.743,9.416-9.115,3.947-16.478,1.58-20.068-2.725-.4-.482-1.116.99-2.727.99.991-2.725-.574-7.623-.247-7.309-.386-.371-.743.125-2.231-.124,1.116-1.611,2.231-3.468,1.488-10.158-.991.122-1.363-.249-2.354-.373,2.106-1.61,2.609-2.909,2.653-3.727a50.536,50.536,0,0,1,.878-7.184c.273.314-1.023-2.336-2.416-2.221-1.328.111-3.468-6.194-3.468-6.194s-.125-1.859-1.273-2.009c-.906-3.006-.8-6.57,1.024-11.371.185-.484-.342-1.227-.124-1.735.447-1.037,1.937-2.455,2.54-3.6-8.717-6.314-9.459-18.869-3.159-26.5.257-.311-.154-1.2.125-1.487,1.19-1.249,3.8-2.453,5.369-3.26a1.115,1.115,0,0,0,.577-1.2s3.839-1.278,5.573-1.858c.43-.143.432-.744.868-.866,1.783-.5,4.568-.313,6.438-.429.413-.027.456-.557.871-.563a27.4,27.4,0,0,1,8.194,1.679,2.141,2.141,0,0,0,1.1-.068l4.595,2.2,1.228-.094,10.592,4.577L173.969,40.7c-3.531-.372.557-5.018,2.973-2.23,3.158,2.23,4.273.371,3.9-2.788a12.108,12.108,0,0,1,4.089-8.361c.929-1.115,4.086-2.788,5.387-5.762-.443-.507-1.29-3.455-4.088-1.857l-.186,4.088-3.53,2.787-.557,1.673-1.3,1.858c0-1.115-2.168-4.4-2.168-5.319s3.469-2.848,3.469-2.848c-5.576-1.673-9.292-2.982-6.318-7.257.288-.479,6.773-7.2,8.919-8.175-.558-2.231-1.116-4.089-.743-6.5,2.045.185,5.574,2.415,6.875,3.716l5.391-2.045c17.282-2.6,25.644,7.247,25.644,7.247,1.858,3.716-2.046.929-2.046.929-5.945-3.344-8.733-4.46-17.094-3.344l.929,1.114c11.563.184,15.254,5.084,19.326,8.92,1.3,1.672.743,3.346-1.3,1.858-3.156-4.46-8.918-7.8-18.024-7.433-.113.332-.781.666-.992.937-.857,1.1-1.859.975-1.794,1.664s5.077,5.156,1.673,12.954c-.559,4.46-2.358,9.539.618,11.4l2.354,2.726c4.216-.593,8.725-3,12.388-3.841.659-.152.489.5,1.14.356,2.443-.558,5.839-1.8,8.274-2.214.666-.114.339.49,1.013.4a75.284,75.284,0,0,1,10.137-.891c.89.017.686.8,1.611.868,2.849,0,8.081,1.78,9.784,2.725.276.152.1,1.1,1.281,1.918a46.541,46.541,0,0,1,4.546,3.286c.632.615-.373,1.238.244,1.858,5.667,6.958,6.817,16.287-2.288,25.512.452,1.019,1.533,2.353,1.918,3.353.25.644-.173.956.039,1.6a21.97,21.97,0,0,1,1.448,9.057c.126,1.487-.99.372-1.117,2.106a32.584,32.584,0,0,1-3.344,8.3,1.08,1.08,0,0,1-1.238.371,5.267,5.267,0,0,0-1.114,2.354,43.339,43.339,0,0,1,.737,6.557c.128,1.372.5,1.5,2.485,3.973-.994.372-2.277-.155-2.358.62-.987,8.548-.618,7.308.127,11.024-.622.124-1.927-.907-2.229-.247-4.09,5.078-4.461,6.566-4.337,8.424-.476.449-2.318-.857-2.824-.475a14.57,14.57,0,0,1-4.866,2.457c-11.283,2.749-15.973-3.84-13.246-7.8,2.352-3.469,6.318-2.982,7.061-.009a5.5,5.5,0,0,1,2.849-.61c-.124-1.858,2.911-3.293,2.911-3.293-1.114-1.672-1.114-2.787.559-3.715-.929-1.487.369-2.788,2.043-3.9-1.3-1.487-1.3-1.672-.371-4.088.742-1.859,2.042-2.231-.186-4.088.557-2.23-.371-4.461.186-6.319-2.973-1.487-4.089-2.416-5.02-7.433-.368-3.159.375-3.345-2.042-6.131-.744-.744-1.115-3.159.744-2.231,1.485,0,.743-2.23.743-2.23-1.3-2.973-1.8-3.036-4.028-4.521V87.835c2.788,1.3,3.655,4.892,3.655,4.892C233.434,95.7,236.655,98,236.655,98c-.374,1.363-1.124,1.61-1.124,1.61l.009,5.327c.225,1.573,1.213,4.07,1.242,5.079-1.614.619-1.2.861-2.108.989-.621,5.7-2.6.186-2.973-2.6-.443.221-.964,1.185-1.115.124a22.439,22.439,0,0,1,.248-4.467c0-5.39.247-7.186-1.8-10.53v6.078L193.851,73.772,157.864,99.611v-5.83c-3.531,4.46-1.178,13.812-1.178,13.812.186,6.133-.186,7.619-2.415,5.946ZM195.09,6.945c1.2.121,1.239-1.363,1.239-1.363-1.361-.99-3.1.125-3.1.125.589.279,1.458,1.2,1.858,1.238M194.1,8.432c-2.231.248-1.859-1.61-4.213-1.735l.247,1.239-.5.62c-1.609-.991-2.353-.991-3.963.619l-1.611.743-.866,1.239-1.611,1.115-.868,1.238-1.238.991-.5,1.734-.5.992,1.61.372.868,1.858,1.362-.372a2.454,2.454,0,0,1,.373-1.364c.371-.372.867,0,.867,0l.991-.247.5-.743,1.735-.125s.62-.743,1.24-.743,1.115,1.487,1.485,1.611,1.238-1.362,1.238-1.362h1.735l.5-1.364.558-1.369V12.142l-1.054-.241-1.115-.991-.743-.868.248-1.362.867-.124,1.239.5L194.1,9.3ZM183.817,21.439l-.5.868-1.857.991,1.981.62.743-.5.373-.372Zm-1.735,2.85-.991.249-.372.742.99.868ZM198.434,9.546c-.493-1.238-1.114-.743-2.1-.99l.5.743Zm-.121,1.363a1.691,1.691,0,0,0-2.229-.124l1.114.743Zm-2.355,9.912c-.911-.326-1.61-.5-1.238.989-.121,1.364-.5,1.239-1.734,1.488a.648.648,0,0,0-.5.99l-.372.5c.125.991.249.991-1.238.868-1.24,0-.743-.126-.868.867a1.262,1.262,0,0,1-1.362.991c-.991.124-.5,1.115-.991,1.362s-1.858-.743-2.105.248c-1.735.743-1.611.991-1.735,2.6-1.238,2.23-1.115,5.7-1.238,7.681,0,1.363.371,1.735-1.364,1.735l-.371.62-1.735-.5-.5.618s4.585,1.488,6.442-1.487c.62-2.6,1.239-2.973,2.354-4.831,1.115-2.229,1.982,0,2.105.743.124,2.6-.124,3.222,1.735,3.841,1.858,0,2.229-.619.5-1.24-1.362-.742-.991-.867,0-1.487.5-.743.5-.99-.124-1.734-1.734-.62-1.734-1.982-.372-1.982,1.116,0,1.177,1.246,1.735,1.485,1.362-.866-.247-1.857-.5-2.477,1.054-1,.5-.125,1.858.247,2.725.5,3.223-.743,2.23-.99-1.115-.743-1.115-1.363-1.236-2.726-.622-1.734-.684-.86-1.24-1.238-.992-.248-1.054-.751-.558-1.247-.805-.859-.064-1.355,1.054-1.232,0,0,3.093.621,2.23-1.361.122-1.487.864-2.727-.87-3.345m5.2,3.467c.871-1.645-2.848-.99-3.47.991l.25,1.363c1.982-.743,2.1-.247,3.22-2.354m1.984-15.361c-.581-1.932-3.967-1.115-2.727-.5,2.727,1.363,3.1,1.735,2.727.5M187.41,41.386c-1.054.105-1.115,2.477-2.354,3.1,3.1.248,2.6.124,3.963-.5,0,0,1.364-1.736,0-2.479-1.362-1.237-.371-.246-1.609-.122m16.39.285c-1.735,1.487-6.194,1.735-3.963-1.487,1.114-1.115,0-1.237-1.489-.991a1.319,1.319,0,0,0-.988,2.354s1.238,2.6,5.576,2.6c2.723,0,2.477-3.858.865-2.479m-8.339-.658c-.62,1.983.123,2.106,1.61,2.231l-.5-.992Zm-1.115,2.974c-2.205-.015-2.725-.125-2.973,1.238.248,2.106.125,1.487-.99,2.106-1.488.62-.5.991.124,1.238,0,0,2.354,0,.867,1.115,0,0-1.8,1.122,0,1.115.992,1.239.5,2.23-.124,3.469.867,1.362,2.107,1.487,2.6-.125-1.734-1.858-.866-2.23-.122-1.858,1.485.372,1.362-.372,1.114-1.115-.62-1.115-.124-.991,1.488-.743,2.229.248,1.983-.867.99-1.487-1.363-.867-1.236-1.61-.493-1.61a2.389,2.389,0,0,0-1.613-2.23c.5-1.115.311-1.107-.867-1.115m-10.654,2.85c-3.84-1.115-11.4-.743-14.495-.743,0,0-1.485.619-1.485-1.239.99-.991-4.831-1.982-9.539-1.735-1.735.372-1.24.5-1.115-.99,1.115-.743-3.469-1.611-7.805-.372-1.983.494-2.106.494-1.735-.62,0,0-1.238-.5-5.079,1.363-.867.619-1.61-.372-1.61-.372s-3.841,2.85-4.46,4.831c0,0-.991,1.363-1.735-.248-2.725,4.708-3.1,10.282-.62,13.5,1.115,1.488.249,2.973-1.735,1.488,1.239,3.1,1.735,2.6,4.212,3.345,0,0,2.354,1.238-.371,1.982,1.983,2.478,2.6,2.23,6.566.867,0,0,.5-.991,3.221-.991,2.6-.99,1.362-2.725-.248-1.485-1.486.867-2.973.5-3.221-.248,0,0-.5-1.363-2.6-1.24-1.486.248-1.115.372-1.362-.99a45.676,45.676,0,0,1-.125-6.2c.868-.247.619-.99.5-2.973,1.611-.372.743-.372,1.115-1.858,0-2.23-.246-1.61.743-1.61,0,0,0-1.735,2.85-.991,2.106-1.238.248-2.973,3.841-3.22,0,0,3.963-2.478,4.336.124,0,0,.867.372,2.231-1.238,0,0,.619-.5,4.212.247,2.6-.5,3.22-.372,4.335.991,0,0,.5,2.353,3.221.62a12.286,12.286,0,0,1,5.451.867s2.6.991,3.841.5a5.4,5.4,0,0,1,3.345,1.363c.247.867,1.487,1.238,1.487.124,0,0,.867-1.734,1.735-.124,2.6,1.61,3.809-2.232,2.105-2.725m20.9,2.237c.865-1.611,1.733.124,1.733.124,0,1.115,1.239.743,1.488-.124a5.4,5.4,0,0,1,3.344-1.364c1.239.5,3.842-.494,3.842-.494a12.29,12.29,0,0,1,5.45-.868c2.727,1.735,3.219-.619,3.219-.619,1.116-1.363,1.736-1.487,4.339-.991,3.592-.743,4.21-.248,4.21-.248,1.364,1.611,2.229,1.24,2.229,1.24.372-2.6,4.338-.125,4.338-.125,3.592.247,1.736,1.983,3.838,3.221,2.853-.743,2.853.991,2.853.991.989,0,.743-.62.743,1.61.371,1.487-.5,1.487,1.114,1.858-.125,1.983-.373,2.726.493,2.973a45.286,45.286,0,0,1-.121,6.2c-.249,1.362.121,1.238-1.365.99-2.1-.124-2.6,1.239-2.6,1.239-.245.743-1.733,1.115-3.217.247-1.614-1.238-2.851.5-.251,1.488,2.725,0,3.223.99,3.223.99,3.962,1.363,4.584,1.611,6.565-.867-2.725-.743-.373-1.982-.373-1.982,2.479-.744,2.973-.248,4.214-3.345-1.984,1.487-2.849,0-1.735-1.488,2.478-3.22,2.107-8.8-.622-13.5-.741,1.612-1.731.249-1.731.249-.62-1.983-4.46-4.831-4.46-4.831s-.744.99-1.613.371c-3.837-1.857-5.076-1.362-5.076-1.362.371,1.115.245,1.115-1.734.62-4.339-1.24-8.92-.372-7.806.372.122,1.487.619,1.363-1.114.99-4.71-.247-10.532.743-9.541,1.735,0,1.857-1.488,1.238-1.488,1.238a68.884,68.884,0,0,0-14.245,1.983c-1.7.494-.743,3.1,1.859,1.487M185.544,55.2c-.62-1.115-.983-1.054-2.47-1.426,0,0-1.238,0-.99-1.858-1.611-.124-1.858.743-4.213,0-.99-1.858-2.229-2.105-4.583-2.105,0,0-4.584.124-5.451-1.363,0,0-.62-1.115-1.982,0a3.463,3.463,0,0,1-3.469-.124c-1.238-1.858-2.726-.743-4.211-.743a6.546,6.546,0,0,0-4.461,0s-.99,1.24-3.469.743c-2.105-.991-3.592-.248-4.335.99a2.317,2.317,0,0,1-2.973,1.735c.124,1.982-.125,3.964-1.363,3.345,0,0,0,1.61-.991,1.858-.5,1.363-.124,2.353,0,3.593a29.387,29.387,0,0,1,6.938-5.2s1.487-.99-.124-1.487c0,0-1.239-1.115,1.238-1.487,3.965-.248,3.468-.5,5.947-1.858,4.583-.5,6.813-.373,12.76.371,5.946.991,12.5,3.656,15.849,5.019Zm17.382,0c3.347-1.363,9.905-4.027,15.854-5.019,5.944-.743,8.175-.867,12.756-.371,2.478,1.362,1.984,1.61,5.947,1.858,2.477.372,1.24,1.487,1.24,1.487-1.611.5-.125,1.487-.125,1.487a29.413,29.413,0,0,1,6.94,5.2c.121-1.239.494-2.23,0-3.593-.993-.248-.993-1.858-.993-1.858-1.238.62-1.486-1.363-1.363-3.345a2.318,2.318,0,0,1-2.973-1.735c-.743-1.238-2.229-1.982-4.334-.99-2.479.5-3.47-.743-3.47-.743a6.545,6.545,0,0,0-4.46,0c-1.486,0-2.972-1.115-4.212.743a3.46,3.46,0,0,1-3.468.124c-1.364-1.115-1.983,0-1.983,0-.868,1.487-5.45,1.363-5.45,1.363-2.355,0-3.595.247-4.585,2.105-2.354.743-2.6-.124-4.213,0,.247,1.858-.991,1.858-.991,1.858-1.485.372-1.848.311-2.469,1.426ZM188.9,48.942c-1.485-.867-2.353-.5-1.735.62,1.735.743,1.735-.62,1.735-.62m-21.183,3.469c-4.461-1.24-5.823-1.363-8.177-.62-1.486.5-.928.379-1.486-.62a6.32,6.32,0,0,0-4.213,1.24c-.494,1.115-1.609,1.115-1.609.372-1.611.247-1.364,2.23-2.974,3.22-2.477.743-4.708,2.851-1.735,2.726,1.24-.743,1.487-.991,1.859-.125,0,0,1.494.311,1.981-1.734,2.354-3.1,2.726-2.973,5.576-3.716a62.336,62.336,0,0,1,10.779-.743m61.857.651c2.848.743,3.221.619,5.576,3.716.487,2.045,1.984,1.734,1.984,1.734.371-.866.617-.62,1.857.125,2.973.124.744-1.983-1.737-2.726-1.608-.99-1.361-2.973-2.973-3.22,0,.743-1.114.743-1.608-.372a6.317,6.317,0,0,0-4.214-1.24c-.558,1,0,1.115-1.488.62-2.353-.743-3.716-.62-8.176.62a62.326,62.326,0,0,1,10.779.743M171.42,55.2c-.74-.165-.74-.8-1.479-.93a41.823,41.823,0,0,0-12.078-.132c-4.521,1.494-2.663,1.619-3.655,3.353,0,0,1.362.991-.743,2.478,0,0-3.346,1.237-.62,2.725.867,3.469-1.611,11.026-10.778,11.274-1.363,4.212-1.114,6.318-.125,6.194,0,0,.868-.372.5,1.858-.99,2.478.62,5.327,1.363,1.983-.212,1.583,1.264-3.032,1.858-3.346,0,0,1.735-1.487-.372-1.735,0,0-2.85-1.363.124-2.478,0,0,2.478.5,3.841-1.115a17.648,17.648,0,0,0,8.61-8.927V55.2Zm57.638.014V66.419a17.645,17.645,0,0,0,8.612,8.927c1.363,1.611,3.839,1.115,3.839,1.115,2.974,1.116.125,2.478.125,2.478-2.107.247-.37,1.735-.37,1.735.591.314,2.067,4.929,1.858,3.345.743,3.345,2.351.5,1.361-1.983-.373-2.229.5-1.858.5-1.858.989.124,1.237-1.982-.126-6.194-9.164-.248-11.645-7.805-10.779-11.273,2.727-1.488-.617-2.726-.617-2.726-2.108-1.487-.742-2.478-.742-2.478-1-1.735.864-1.858-3.658-3.352a41.826,41.826,0,0,0-12.08.131c-.737.129-.739.766-1.476.929ZM136,72.6c-1.734,4.709-1.363,7.681-.248,12.14,0,0-.991.868-.867,1.611.469,2.811,1.6,3.651,5.326,4.583,1.858,0,1.363,1.115,1.115,1.611,0,0-1.115,1.61.372,1.858,0,0,6.938.99,7.557-5.079,0,0,.247-3.221-1.983-.991-1.61.372-1.735.5-1.735,1.983-.247,1.61-.866,1.61-1.486-.5a2.389,2.389,0,0,0-1.983-.99,2,2,0,0,1-1.734-2.231s.5-1.61-.5-1.858c-.868-.247.743-1.238-.619-2.725-.62-1.858.371-.744-.124-3.221a14.429,14.429,0,0,1,.866-5.079A8.878,8.878,0,0,1,136,72.6m111.147.9a14.392,14.392,0,0,1,.868,5.078c-.5,2.478.5,1.363-.124,3.222-1.364,1.485.248,2.477-.62,2.724-.989.249-.5,1.858-.5,1.858a2,2,0,0,1-1.735,2.231,2.389,2.389,0,0,0-1.981.991c-.621,2.105-1.238,2.105-1.488.5,0-1.487-.121-1.61-1.734-1.983-2.231-2.23-1.983.992-1.983.992.622,6.07,7.557,5.078,7.557,5.078,1.485-.247.371-1.858.371-1.858-.245-.5-.743-1.61,1.115-1.61,3.733-.933,4.859-1.772,5.33-4.583.121-.743-.87-1.612-.87-1.612,1.116-4.46,1.488-7.433-.245-12.139a8.892,8.892,0,0,1-3.967,1.115m-92.07,1.331c-2.105.744-1.982.5-2.229,1.734l-.991.991-1.362.743s-.62,2.354-1.611,2.6c-1.983.867-1.983,2.725-1.115,2.6l.867-.743L150,83.01s.991-.62.742-1.363a2.949,2.949,0,0,0,1.489-2.6v-.868a9.415,9.415,0,0,0,2.847-3.345m80.548,3.315v.866a2.955,2.955,0,0,0,1.488,2.6c-.248.743.743,1.363.743,1.363l1.365-.248.865.743c.867.122.867-1.735-1.115-2.6-.99-.247-1.608-2.6-1.608-2.6L236,77.529,235,76.537c-.245-1.238-.122-.989-2.23-1.734a9.447,9.447,0,0,0,2.849,3.346M157.864,70a7.968,7.968,0,0,0-1.054,2.982l1.054-.5ZM229.044,71.9l1.051.5a7.967,7.967,0,0,0-1.051-2.981ZM140.086,98.249c-1.735,4.21-1.363,6.937-1.24,10.034,1.115,3.1,1.735,5.2.62,4.583-1.24-.247-.247,3.593,1.363,6.814,2.106,3.469,2.353,3.469,4.707,4.213,0,0,1.735.743.62,1.487-1.362.743-1.238,2.478,6.318,2.478,6.071-.62,9.292-4.956,4.336-4.461-1.238,0-.494,1.983-3.1.991-2.974-.867-.371-1.363-3.716-2.477-2.726-1.86-2.726-2.6-2.726-4.213.744-2.231,1.488-1.983-.867-3.221,0,0-2.973-2.105-1.362-3.716,1.114-1.24-.62-2.106.742-3.345.372-1.984-2.477-1.859-1.362-4.089,0,0,1.487-2.725-.125-4.707-2.23-.249-4.211-.372-4.211-.372m102.36-.743c-1.61,1.982-.124,4.707-.124,4.707,1.116,2.23-1.734,2.106-1.361,4.088,1.361,1.24-.373,2.106.743,3.345,1.608,1.611-1.365,3.716-1.365,3.716-2.351,1.239-1.609.991-.866,3.221,0,1.611-.157,3.1-2.88,4.956-3.343,1.115-1.115,1.735-4.088,2.6-2.6.99-3.469-.743-4.709-.743-3.1,1.115.664,3.638,5.081,4.089,7.554,0,9.072-2.478,7.711-3.221-1.115-.743.617-1.488.617-1.488,2.358-.742,2.6-.742,4.709-4.212,1.61-3.22,2.6-7.061,1.365-6.814-1.115.621-.5-1.487.617-4.583.126-3.1.838-5.452-.9-9.663a24.062,24.062,0,0,0-4.554,0M177.561,62.322a11.95,11.95,0,0,0-4.213.247,5.628,5.628,0,0,1-3.841,3.469c-2.105.372-1.61,2.354-.867,1.983.99,0,1.116.124,2.23.99l1.487.248a3.344,3.344,0,0,1,3.716-.621c.991.125,2.354-2.229,1.858-3.344l-1.735.125c-2.353.99-4.335-.372-1.238-1.363a2.155,2.155,0,0,0,2.85-.62Zm2.229-.248c2.106-.868,3.1-.5,4.957-.5l.5-.246a7.439,7.439,0,0,0-3.1-.743c-2.23.122-2.848,0-3.716.989-.365.418.62.991,1.362.5m-.494,1.983c1.114-.372,3.089.494,5.319.124l.008-.5c-4.048-1.012-.455-.826-5.08-.248Zm1.238,1.238c-1.094-.182-1.889-.015-.868.5.991.373.868-.5.868-.5m-8.919,5.079c-.5.5-1.364.5-1.115,1.238,1.115,0,1.238.249,1.238-.372Zm6.317-1.858c-.481,1.923-.742,2.725-4.212,2.725a2.341,2.341,0,0,0-.743,2.106l-.123,1.238c1.609,1.115,2.724,2.727.247,2.23-1.238-.122-1.735.868-1.115,1.363,1.115.5,1.363.743.125,1.611-.232.283-2.845,2.67-1.983,2.478,2.079-.16,1.615-1.24,2.973-1.24.248-1.611.991-1.611,2.106-.867,1.238,1.735,1.61.5,1.61-.744-.247-.866,1.611-.866,2.479-.247.494,1.24,1.982.743,1.61,0-.5-.868.248-.742.619-1.857l-.867-1.735a7.868,7.868,0,0,0-.372-2.851c-.248-1.362-.99-1.734-.62-2.477,0-1.363-1.238-3.716-1.735-1.735m3.841,9.663c.867-.248,1.362.124,1.982,0-.62-.743,0-.99-1.238-1.238a1.9,1.9,0,0,1-.743,1.238m26.389-14.865c-1.291.967-2.356,2.352-3.716,2.725-1.242.248-1.365,1.611-.251,1.611.744,0,.744.5.869.989.415.727,2.207-.457,1.858-.246a4.395,4.395,0,0,0,5.945-1.735l.127-.868c1.236,0,1.236-1.362.246-1.487-.246-1.487-1.858-2.354-3.841-2.105-1.236.124-.743.743-1.236,1.115m5.449-1.115c1.363-.5,4.087-.372,6.319-.249l-.618-.618c-6.518-1.087-3.232-.773-6.817.122a1.729,1.729,0,0,0,1.116.744m1.734,1.61c2.108-.5,2.853.742,4.337,1.487v-.619c-.868-.62-1.239-1.611-2.973-1.983-.868,0-3.048-.076-2.6.372.374.372-.125.867,1.237.743m-6.938,6.318c-.742,1.858-1.115,1.983-2.6,1.115-2.231,3.469.868,1.736.868,1.736s-.6,2.614.122,3.1c1.487-.248,1.61-.373,1.983.494-.125.868,1.241,1.984.99,2.6-.3.477.072,1.009.25,1.362.493,1.24,1.361.743,1.236-.247-.371-.868.5-1.487,1.737.62a2.9,2.9,0,0,1,2.972,2.105h.5a5.187,5.187,0,0,0-1.487-5.946c-.991-.248-1.115-.5-.493-.867.864-.372.244-2.478-.87-2.478-.385-.085-.646-.864-.5-.991.979.245,2.188-1.015,1.366-1.487.411.276-1.116-.247-.251-.867-.371-1.487-.247-2.23-1.363-2.106-1.858,2.354-4.158,1.11-4.46,1.858m-.867,6.567c-1.236.742-.743.62-1.114,1.237l-1.61,1.116c.99.62,3.467,0,3.963.371.126-1.238-1.239-2.724-1.239-2.724m-2.351-7.557c-.622.124-.869.619-.995,1.238,1.152.575.995-1.238.995-1.238" transform="translate(8.182)"/>
    <path id="Path_76" data-name="Path 76" d="M203.08,68.3c-.846-.636-.5,1.858-.124,2.23.372-1.238.622-1.858.124-2.23" transform="translate(13.138 4.424)"/>
    <path id="Path_77" data-name="Path 77" d="M189.061,96.229a2.973,2.973,0,0,0-3.347.868c.744.744,1.114.991,3.222-.124Z" transform="translate(12.046 6.231)"/>
    <path id="Path_78" data-name="Path 78" d="M190.873,105.221c-.5-1.244-1.485-.62-2.228.122-.62,1.489.249,1.859-.371,2.727.122,1.362,1.24.5,1.24-.38s.618-1.6.866-1.231c.868.124.745-.619.493-1.238" transform="translate(12.212 6.779)"/>
    <path id="Path_79" data-name="Path 79" d="M186.821,107.505a1,1,0,0,0-.866,1.487l.866.372.373-.743c0-.5.372-1.115-.373-1.115" transform="translate(12.053 6.973)"/>
    <path id="Path_80" data-name="Path 80" d="M192.271,101.107c-.834-.277-.815.975-.375,1.241.744.248.622,0,.744-.372,0,.756.332-.633-.369-.869" transform="translate(12.427 6.555)"/>
    <path id="Path_81" data-name="Path 81" d="M188.782,111.372a2.222,2.222,0,0,0-2.725,0,11.108,11.108,0,0,1,.5,1.982,5.049,5.049,0,0,0,2.222-1.982" transform="translate(12.068 7.194)"/>
    <path id="Path_82" data-name="Path 82" d="M190.968,113.321c0-.027-.952,1.8.743,1.239Z" transform="translate(12.369 7.35)"/>
    <path id="Path_83" data-name="Path 83" d="M225.943,108.205c-.815,2.264-5.566,10.5-17.467,11.707-4.09.558-12.265.186-16.91,8.363-4.461-7.805-15.8-7.991-15.8-7.991-5.575-.743-14.867-3.532-19.14-12.823l34.936-25.086ZM186.609,96.374c-1.486,2.106-1.611,1.488-3.345,3.345-1.238.869-1.362,1.24-.247,2.23a6.409,6.409,0,0,0,3.469-.371,2.344,2.344,0,0,1,2.973-.248c1.487.5,1.981-.124,2.106-1.369,0-.991,1.485-.984,2.476-1.109.743-.494.3-2.661-.864-3.468a6.6,6.6,0,0,0-5.577-.743c-.992.743-.54,1.094-.992,1.734m8.231-2.462a27.207,27.207,0,0,1,7.819.72l-.121-.619a21.916,21.916,0,0,0-9.309-1.091s.124.99,1.611.99m2.3,2.215c3.715.247,3.593,1.238,5.329,1.858l-.127-.5c-.743-.5-1.115-1.488-2.726-2.106a29.841,29.841,0,0,0-4.581-.5s-.7,1.24,2.105,1.24m-4.461,5.327c-1.011,1.347-.5,1.734-2.6,1.858-1.857.124-1.363.5-2.106,1.982.124,3.345-2.268,5.109-3.1,8.425-.62,2.6-.62,2.85-2.478,3.468-1.735.372-.743.62.124.867,2.6.991,2.85.373,4.708-.743a2.713,2.713,0,0,1,3.964,1.6c.62,2.485,1.612,2.113,2.849.627.124-1.859.622-3.842,2.481-3.593a4.5,4.5,0,0,0,3.344.494c.989-.122,1.361-.619.121-.867-2.723-.62-5.7-1.362-4.83-5.7.621-.5.371-.5.621-.989-.25-.869-.372-1.116.122-1.858-.249-.992-.743-1.239-.249-1.859-.371-.991.127-1.61.743-1.114a16.242,16.242,0,0,1-.371-1.983c-.5-1.611-.743-1.735-2.23-1.611-.989.125-.743.5-1.115.991m-6.318,1.487h-.991c.292,2.917,1.071,1.171-.5,2.478-.62.99.372,1.611.868.619.536-.4.846-2.3.866-2.23Zm9.166-5.824-.371,1.116c.992.125,1.237.371,1.365-.124Z" transform="translate(10.159 5.343)"/>
    <path id="Path_84" data-name="Path 84" d="M189.443,94.59c-.1-.586-.152,1.124.493,1.124a1.222,1.222,0,0,1,1.24,1.114l.622-.357-1.46-1.61Z" transform="translate(12.283 6.127)"/>
    <path id="Path_85" data-name="Path 85" d="M175.372,132.7c-2.353-.433-2.168.5-1.672.867.619.248.433.248.557.929.062,1.3-.31,5.019-.806,5.452-1.424.433-1.548,1.115-.185,1.424a41.178,41.178,0,0,0,8.177.682c1.052,0,1.3-.061,1.487-.867l.31-1.425c.433-.929-.62-1.672-1.3-.743-1.053,1.425-.62,1.3-2.106,1.425a6.08,6.08,0,0,1-2.973-.558c-.335-.136.124-4.707.929-5.635,1.238-.372,1.114-1.363-.185-1.3a12.143,12.143,0,0,0-2.231-.248" transform="translate(11.176 8.6)"/>
    <path id="Path_86" data-name="Path 86" d="M197.627,132.945a15.2,15.2,0,0,1-2.479-.126c-1.362,0-1.423.868-.558,1.178a.93.93,0,0,1,.868.867,43.018,43.018,0,0,1,.062,4.771c-.248,1.115-.493,1.052-.493,1.052-1.18.621-1.116,1.3-.186,1.424a55.743,55.743,0,0,0,8.735-.743c1.858-.371,1.237-.371,1.484-1.237l.187-1.238c.121-1.054-.93-1.3-1.429-.186-.516,1.226-.057.619-1.112,1.238-1.3.5-3.61.571-3.843.249a2.129,2.129,0,0,1-.12-1.921c.275-.442,1.175.124,3.094-.434.436-1.115.5-1.8-.308-1.857-.929.125-2.862.372-2.911-.126a3.626,3.626,0,0,1,0-1.424c.107-.381,2.043-.433,3.777-.31a2.745,2.745,0,0,1,1.365.868c.677.991,1.654.805,1.361-.311l-.309-1.3c-.375-.8-.434-.866-1.363-.618-2.849.061-4.15.186-5.823.186" transform="translate(12.584 8.602)"/>
    <path id="Path_87" data-name="Path 87" d="M207.232,132.538c-1.734.125-2.324.8-1.423,1.363a1.436,1.436,0,0,1,.743.867,13.862,13.862,0,0,1,.246,3.841,1.661,1.661,0,0,1-.31,1.3c-.563.225-1.228,1.2.124,1.115,2.106-.436,2.728-.621,3.9-.93.733-.259.806-1.178.064-1.178-.437-.248-.525-.315-.744-.93a16.289,16.289,0,0,1-.249-2.724c.249-.311,4.215,3.53,4.957,3.776a4.4,4.4,0,0,0,2.6-.989c.493-.805-.249-2.6-.311-4.46a2.17,2.17,0,0,1,.372-1.3c.62-.558.062-.992-.558-1.055a14.276,14.276,0,0,0-2.6.436c-.8.062-1.115.929-.68,1.177.4.033.964.875.807.558a12.061,12.061,0,0,1,.431,2.415,23.574,23.574,0,0,1-3.716-2.973c-.99-.743-2.273-.41-3.656-.311" transform="translate(13.322 8.512)"/>
    <path id="Path_88" data-name="Path 88" d="M169.883,132.862c.186,1.736.5,5.018,1.611,7.062.68.557.557,1.3-.558,1.24a17.256,17.256,0,0,1-3.036-.5c-.68-.31-.867-.867-.062-.99a.373.373,0,0,0,.062-.743c-.464-.186-2.6-.992-3.467-.558-1.179,0,.5,1.542-1.053,1.177a6.368,6.368,0,0,1-2.17-.681c-.371-.248-1.609-1.114.373-1.549,2.168-.989,3.9-3.158,5.141-5.077.367-.569,3.1-.171,3.16.618m-2.045,1.549a24.467,24.467,0,0,1-1.92,1.982,6.777,6.777,0,0,0,2.54.558c-.185.125-.578-2.519-.62-2.54" transform="translate(10.409 8.56)"/>
    <path id="Path_89" data-name="Path 89" d="M192.7,134.3c1.673,1.425,1.673,5.079-.25,6.938-2.287,1.794-4.754,1.032-8.484.8-.868-.31-.832-.684,0-1.239.372-.246.247-.372.433-.618a13.721,13.721,0,0,0,.063-5.018c0-1.115-.186-.683-1.054-1.115-.68-.434-.31-1.115.744-1.177a21.673,21.673,0,0,0,2.847.062c1.859-.062,3.718-.621,5.7,1.362m-5.637.248a31.182,31.182,0,0,1-.063,5.946c1.859.743,4.151.434,3.9-3.036-.063-3.716-3.9-3.465-3.842-2.91" transform="translate(11.874 8.614)"/>
    <path id="Path_90" data-name="Path 90" d="M217.575,127.4c-1.116-.122-1.242,0-1.613.373.745.5,1.613.868,1.985.371Z" transform="translate(14.007 8.26)"/>
    <path id="Path_91" data-name="Path 91" d="M154.143,127.52a5.168,5.168,0,0,0-3.1.5c1.363.62,3.1-.5,3.1-.5" transform="translate(9.797 8.267)"/>
    <path id="Path_92" data-name="Path 92" d="M148.723,128c-1.734-.247-.99-.494-1.981,0a1.691,1.691,0,0,0,1.981,0" transform="translate(9.518 8.283)"/>
    <path id="Path_93" data-name="Path 93" d="M146.539,129.282c-2.734-.247-2.6-.742-4.335.125a6.378,6.378,0,0,0,4.335-.125" transform="translate(9.223 8.362)"/>
    <path id="Path_94" data-name="Path 94" d="M144.112,130.929c-3.222-.5-2.478-1.115-4.585-.245a7.039,7.039,0,0,0,4.585.245" transform="translate(9.05 8.448)"/>
    <path id="Path_95" data-name="Path 95" d="M146.366,131.588a2.082,2.082,0,0,0-1.487.372l.868.247Z" transform="translate(9.397 8.534)"/>
    <path id="Path_96" data-name="Path 96" d="M152.307,129.97c-.743-.248-1.362-.248-1.611.123l.868.5Z" transform="translate(9.774 8.419)"/>
    <path id="Path_97" data-name="Path 97" d="M137.191,130.314c-.867-.125-1.116-.248-1.735.373.124.618.742,1.485,1.362,1.114s.373-1.487.373-1.487" transform="translate(8.786 8.446)"/>
    <path id="Path_98" data-name="Path 98" d="M133.824,126.4c-.62-.247-1.736-.743-1.736-.743a12.408,12.408,0,0,0-.122,1.858c1.115.248,1.858-1.115,1.858-1.115" transform="translate(8.559 8.15)"/>
    <path id="Path_99" data-name="Path 99" d="M132.236,128.214c-.627.866-.619.742-.619,1.361,1.708.213.619-1.361.619-1.361" transform="translate(8.537 8.316)"/>
    <path id="Path_100" data-name="Path 100" d="M166.8,127.4a2.009,2.009,0,0,0-.743.62l.99.621.5-.5Z" transform="translate(10.77 8.263)"/>
    <path id="Path_101" data-name="Path 101" d="M220.539,134.946l-1.115.742.867.744.372-.62Z" transform="translate(14.232 8.753)"/>
    <path id="Path_102" data-name="Path 102" d="M226.2,127.309c1.237-.122,1.61-.743,2.105-.247,2.228.125,2.228.867,3.221.62l-1.858.247Z" transform="translate(14.672 8.229)"/>
    <path id="Path_103" data-name="Path 103" d="M224.339,128.563a7.768,7.768,0,0,1,2.974.247,2.944,2.944,0,0,1-2.974-.247" transform="translate(14.551 8.339)"/>
    <path id="Path_104" data-name="Path 104" d="M224.223,129.741l1.239-.248,1.114.371-1.238.373Z" transform="translate(14.543 8.399)"/>
    <path id="Path_105" data-name="Path 105" d="M232.366,130.567c1.985-.5.991-.618,3.841-.246a4.917,4.917,0,0,1-3.841.246" transform="translate(15.071 8.439)"/>
    <path id="Path_106" data-name="Path 106" d="M238.184,131.516l.867-.743.743.248.248.5Z" transform="translate(15.449 8.482)"/>
    <path id="Path_107" data-name="Path 107" d="M237.828,129.046c2.849-.62,1.988-.123,3.592,0a4.877,4.877,0,0,1-3.592,0" transform="translate(15.426 8.35)"/>
    <path id="Path_108" data-name="Path 108" d="M237.181,127.05l-.742.62,1.115.372.867-.62Z" transform="translate(15.336 8.241)"/>
    <path id="Path_109" data-name="Path 109" d="M131.889,116.968c2.353.5,4.344,1.6,3.228,5.2-.991,2.105-.054,2.85,3.532,3.22,4.831.372,9.166,1.611,18.582-1.115,4.831-.5,10.655-1.8,14.495-.557,1.548.805,1.548.557,1.672,3.283.125.99-.372,2.6.248,3.592,1.115.5,4.164.556,4.955.62a272.9,272.9,0,0,0,30.1-.122c2.6-.126,3.344-.745,3.344-.745l.372-3.654c-.185-2.045.93-2.787,2.6-3.159,1.674-.557,4.028-.125,9.107,1.115,5.727,1.309,9.67,1.3,15.238,1.3,3.593.372,11.212-.248,11.707-2.6.372-1.735-.372-2.788.372-4.089,1.116-1.485,1.3-1.858,4.459-2.269,0-2.229.382-4.73,4.337-4.35,5.326,1.231,4.6,5.5.141,7.363,7.184,1.61,5.743,8.547,2.771,10.1-2.771,1.052-4.832,0-5.016-2.663.555-2.045,1.87-2.045,2.972-3.159-1.86-.929-2.231,0-4.46,0a16.748,16.748,0,0,0,0,4.46c.211,1.487,1.024,2.321-1.116,4.46-4.831,3.842-11.334,4.831-20.813,2.416-2.231-.743-3.716-1.858-5.388-.743v3.345c0,1.983-1.983,1.921-7.805,4.646-3.283,1.363-10.717,3.1-27.686,3.709-13.506,0-24.778-1.355-32.894-4.453-1.61-1.238-2.787-.743-2.787-4.273,0-.8-.009-1.115,0-3.345-2.23-.929-5.2.683-7.681,1.054-5.513,1.487-11.646,2.105-17.778-.683-3.709-2.6-2.663-2.292-2.788-5.389l.372-5.018c-2.353-.5-4.266-.681-5.017.93,1.369,0,2.973-.124,2.973,1.488,0,2.105-.372,3.963-4.461,3.22-3.84-1.858-2.415-6.813,2.416-9.539-2.973-.5-4.645-3.159-3.159-5.575,1.859-2.231,5.018-3.159,6.691-.372,1.018,1.7-1.3,2.361,2.161,2.361m-.241,3.214c.067-.066-1.363-1.858-6.689-1.735l.5.62c.264.035,3.164.563,3.716,1.487a17.213,17.213,0,0,0-2.247,1.087c-.232.14-.46.29-.686.455-.032.8-.309.4-1.4.811-.5.483-.749,1.229-1.363,1.982l1.238-.619c1.5-1.735,2.6-1.487,5.2-1.363.125-1.238.82-1.81,1.735-2.725m125.487,1.983c3.246,0,2.113.247,3.726.866l1.489-.247c-.781-1.731-4.442-3.109-4.711-3.221.555-.923,3.08-1.2,3.345-1.238l-.991-.372c-3.84.372-3.684,1.623-3.716,1.61,2.185.938.956,1.985.859,2.6m-130.2-6.2c-.195-1.175-1.487-.867-2.857,1.022a3.812,3.812,0,0,1,3.352-.279s-.371,0-.5-.743m132.681,0c1.6-.5,1.557-.4,2.671.1-1.368-1.889-1.686-1.867-2.3-.844s-.372.743-.372.743m-127.848,8.549-.249,1.858.373,2.231-.373,2.849c1.718,2.167,4.487,3.611,8.793,3.8.51.022.688-1.188,1.243-1.2,1.387-.035,1.661.373,2.85.246.295-.03.465.743.771.7.195-.026.393-.054.591-.083,6.194-1.735,10.283-2.6,12.39-2.236,0-1.612-.86-2.222-.62-4.081.37-.621.37-1.116.99-1.364a15.437,15.437,0,0,0-2.105,0c-.5,0-.5-.742-1-.693-1.709.17-3.391.588-5.072.818-3.9.195-8.985.365-13.255-.621a9.125,9.125,0,0,1-5.326-2.229m2.105-2.974c-1.858.249-1.735.125-2.105,1.116a2.558,2.558,0,0,0,1.858,1.114,3,3,0,0,1,.247-2.23m119.132,1.393a2.558,2.558,0,0,0,1.859-1.115c-.372-.989-.25-.866-2.109-1.113a2.993,2.993,0,0,1,.25,2.228m-92.621,6.041c2.6.991,8.3.991,10.9,1.115a8.749,8.749,0,0,0-.5-2.231,60.074,60.074,0,0,0-9.54-.122c-1.485.373-.867,1.238-.867,1.238m66.163.373c1.237-.25.362-.868-1.123-1.238a51.2,51.2,0,0,0-9.537-.621c-2.109.371-1.115,1.238-1.613,2.725,6.073-.247,12.274-.866,12.274-.866m26.133-2.232c-.053-.962.932-1.094.858-1.734a.879.879,0,0,0-.613-.743c-1.4,1.12-4.215,3.093-14.74,2.726-2.355-.125-7.247-.256-8.859-.379.212.464,1.164,1.04,1.3,1.369.326.772-.97,1.119-.744,2.478-.122,1.237.871.62.871,1.364a2.565,2.565,0,0,1,2.641.183c-.079,3.123,1.267.914,2.435,1.549.613.335,2.529-.014,3.47.249.492.137-1.415.863-.743.991.819.154,3.025.346,4.21.494,3.662.306,8.914-1.068,10.158-2.848.414-1.119-.153-4.012-.245-5.7m-92.3,3.717c.372,1.364.247,4.337,0,8.549-.112,1.891,13.5,5.2,33.451,5.442,19.821-.241,29.9-4.068,33.447-6.435.372-.246-.5-4.83.246-7.927-11.512,2.267-19.576,2.468-33.68,2.468-13.394.628-33.378-1.784-33.463-2.1m94.842-4.305-1.612.744.251.494,1.236.126Zm-.178,1.967c-.742.372-.867.5-1.114,1.239.122,1.982,1.114.867,1.488.246Z" transform="translate(7.886 7.303)"/>
    <path id="Path_110" data-name="Path 110" d="M151.773,167.189l-6.421,8.121c-2.249,3.748-3.532,6.248-6.744,3.436L134.434,175c-4.173-3.124-9.633-.937-5.137,2.81,4.5,3.436,4.567,5.557,5.137,10,.643,5,0,68.715,0,68.715,0,3.123-.934,3.462-3.853,6.56a28.743,28.743,0,0,1-6.421,5.309c-5.138,3.435-3.212,5.622,1.6,3.749,5.284-2.055,5.779-1.563,5.779-1.563,4.175-.625,7.949,4.086,7.706,3.749,2.248,3.123,7.144,10.931,8.75,10.931s18.864-14.68,18.864-14.68c7.385-4.684,5.3-7.027.16-5.153-12.909,7.662-15.412-5.233-15.412-5.233l.242-75.43c.641-5.936,3.942-8.958,5.056-12.572,5.138-7.809.964-8.746-5.137-5" transform="translate(7.856 10.706)"/>
    <path id="Path_111" data-name="Path 111" d="M186.575,175.576c1.926,3.435,3.212,5.309,3.212,5.309l32.11,35.3c4.171,3.746,2.888,3.122,9.311,2.5,4.814-.625,6.42.938,1.283,4.373-3.211,2.186-3.533,2.186-4.174,7.184L228,257.723c0,4.061-.321,6.245,4.5,9.371,5.137,2.343,4.013,4.372-9.311,2.811C205.357,271.779,196.851,284.9,194.6,284.9s-14.208-11.478-14.208-11.478c-3.073-1.994-3.107-3.187-8.91-1.016-5.458,2.186-8.027,1.562-1.606-3.748,5.458-3.279,4.174-4.06,5.138-7.5l.32-28.423s-.8-3.746-2.89-5.153c-7.866-5-7.705-6.873,1.767-5-1.177,0,13.486,1.249,17.018-1.875,0,0,7.705-3.982,7.865-4.84s-19.906-22.49-22.153-24.989a16.01,16.01,0,0,0-9.953-5.309c-7.818-2.853-1.606-6.56,5.779-4.372,5.619.779,7.063,2.076,7.063-5.934,0-3.748,2.569-8.434,6.743.312m15.733,44.978c-.963.155-10.355,5.545-10.836,7.653-.22.965.241,34.434.241,34.434,1.6,2.812,10.918,8.512,10.918,8.512,2.327.155,8.347-3.748,8.988-4.684,0,0,.081-37.171-.882-38.732s-7.467-7.34-8.429-7.184" transform="translate(10.596 11.065)"/>
    <path id="Path_112" data-name="Path 112" d="M282.26,209.528c.751,2.5,10.57,22.489,14.449,27.174,2.021,2.44-35.317,14.056-35.317,14.056s-.8,9.525.481,10.774,4.815,3.281,8.028,4.842c10.114,6.56,12.681-3.435,19.424-6.56,6.1-2.5,9.954-.311,2.248,5.31,0,0-20.228,17.491-23.761,17.178-2.876-.253-18.943-11.245-18.943-11.245-4.816-2.185-3.212-2.5-9.633-1.248-7.215,3.071-10.275.937-1.927-4.373,5.458-2.811,5.78-3.749,6.423-7.5,0,0,0-26.548-.321-29.984-.312-3.329-4.038-6.025-5.78-6.872-11.361-8.4,6.275-3.781,8.988-4.061,14.824-1.516,26.408-8.314,27.935-9.057,5.3-2.578,5.246-3.828,7.705,1.561m-2.567,29.282c0-1.171-9.94-19.174-9.633-18.272-.552-1.206-3.371-4.371-9.15,0v24.6s18.783-5.152,18.783-6.324" transform="translate(15.066 13.346)"/>
    <path id="Path_113" data-name="Path 113" d="M295.1,219.6c-6.1,3.748-3.853,6.247.641,4.06-1.29.628,5.8-2.693,8.75,3.047l-.08,35.06c-.642,2.81-5.458,4.685-8.026,6.56-6.556,3.987-1.438,4.722,0,4.372a11.289,11.289,0,0,1,5.457.313c2.305.962,10.6,10.307,12.2,10.307s6.424-5.309,6.424-5.309c1.246-1.376,6.027-3.621,5.456-3.435,6.743-3.124,4.175-4.684.642-5.31-5.135-.937-4.817-1.874-5.78-4.686,0,0,.029-35.288.323-36.855.64-3.437,13.725-8.747,13.725-8.747.384-.109,9.071,5.622,9.714,12.182l-.32,39.356c0,4.92,4.093,7.262,7.705,9.137,6.261,3.513,8.331,1.58,7.946,1.872l11.8-10.306c3.371-3.047,2.649-4.92-3.854-2.578-3.612,2.11-6.5,1.875-7.223-.936V229.986c.467-3.635,9-7.269,6.42-6.012,6.431-2.547,5.138-5.934,0-4.373a20.2,20.2,0,0,1-8.348-2.185l-6.42-4.684c-5.357-5.448-2.91-11.559-9.012-5.936l-15.39,9.994c-4.495,2.186-6.42,2.108-9.633-1.328-2.5-2.156-7.8-7.746-5.458-5.232-2.889-5-4.656-5.621-6.743-1.249-2.088,3.75-7.248,8.612-10.917,10.62" transform="translate(18.899 13.268)"/>
    <path id="Path_114" data-name="Path 114" d="M68.033,160.148c4.816-4.061,6.583-1.562,3.212,2.5-.642,1.874-2.89,3.123-.322,7.5l42.384,96.2c2.889,4.373,3.211,3.436,8.027-.312l3.532-3.124c4.334-2.811,6.1-1.249,3.211,3.124l-9.633,12.494c-6.1,7.5-14.128,9.058-20.228-1.563L82.482,242.606H43.63l-5.137,14.368c5.137.624,14.77,3.122,20.87,6.872,4.816,1.562,4.174,3.122,9.312-1.875,5.137-4.217,8.187-2.342,4.495,1.875,0,0-14.77,20.614-17.018,20.614-1.284,0-15.412-16.867-35-14.055-19.587,7.185-9.633,24.051,9.311,21.24,4.816-1.874,6.421-.312,1.926,2.5-7.717,3.105-12.726,3.3-21.834-.624-19.586-12.5-3.853-38.108,18.944-37.17,0,0,17.339-47.476,18.3-52.475s-1.766-16.4-13.325-15.147c-5.78,1.874-5.458-.47-.481-4.218,3.532-2.186,11.237-3.435,18.622,1.562,0,0,1.606-1.249,1.606-6.872.964-11.557-14.449-16.241-21.192-13.431-6.422,2.5-5.779,0-2.568-3.435,7.705-6.248,16.7-5,24.4-.313,2.89,2.5,7.064,4.373,10.917.938ZM47.8,230.425h29.54L61.611,192.006Z" transform="translate(0.109 10.253)"/>
    <path id="Path_115" data-name="Path 115" d="M84.31,84.353a6.441,6.441,0,0,0,2.655.664c.7,0,1.581-.279,1.581-1.144,0-1.483-4.072-2.874-4.072-5.316,0-1.329.909-2.58,3.327-2.58a11.156,11.156,0,0,1,2.371.278l.224,1.808a6.008,6.008,0,0,0-2.088-.448c-1.134,0-1.581.634-1.581,1.1,0,1.638,4.072,2.751,4.072,5.254,0,1.205-.82,2.689-3.415,2.689a12.673,12.673,0,0,1-2.835-.4Z" transform="translate(5.468 4.928)"/>
    <rect id="Rectangle_142" data-name="Rectangle 142" width="2.252" height="10.307" transform="translate(98.008 81.091)"/>
    <path id="Path_116" data-name="Path 116" d="M96.2,76.152h2.745l4.877,7.757h.03V76.152h1.984V86.459h-2.7l-4.923-7.634h-.03v7.634H96.2Z" transform="translate(6.239 4.939)"/>
    <path id="Path_117" data-name="Path 117" d="M115.117,86.377a14.913,14.913,0,0,1-2.67.278c-3.058,0-5.653-1.654-5.653-5.347s2.6-5.331,5.653-5.331a13.32,13.32,0,0,1,2.58.294l.164,1.776a8.713,8.713,0,0,0-2.744-.432c-1.985,0-3.4,1.36-3.4,3.693s1.416,3.709,3.4,3.709a9.5,9.5,0,0,0,2.863-.448Z" transform="translate(6.927 4.928)"/>
    <path id="Path_118" data-name="Path 118" d="M123.634,77.79h-5.012v2.689h4.37v1.514h-4.37v2.828h5.012v1.638h-7.264V76.152h7.264Z" transform="translate(7.548 4.939)"/>
    <path id="Path_119" data-name="Path 119" d="M258.024,78.626l-1.313.912V77.56l1.417-.973h2.148V86.894h-2.252Z" transform="translate(16.65 4.967)"/>
    <path id="Path_120" data-name="Path 120" d="M264.215,84.092a2.389,2.389,0,0,1,2.014-2.457V81.62a2.42,2.42,0,0,1-1.671-2.489c0-1.885,1.76-2.72,3.535-2.72s3.534.835,3.534,2.72a2.419,2.419,0,0,1-1.67,2.489v.015a2.39,2.39,0,0,1,2.014,2.457c0,2.287-2.043,3-3.878,3s-3.878-.711-3.878-3m2.087-.231a1.792,1.792,0,0,0,3.581,0c0-1.02-.821-1.5-1.79-1.5s-1.791.479-1.791,1.5m.195-4.435a1.6,1.6,0,0,0,3.191,0,1.6,1.6,0,0,0-3.191,0" transform="translate(17.137 4.956)"/>
    <path id="Path_121" data-name="Path 121" d="M273.077,84.092a2.39,2.39,0,0,1,2.015-2.457V81.62a2.42,2.42,0,0,1-1.671-2.489c0-1.885,1.76-2.72,3.535-2.72s3.534.835,3.534,2.72a2.42,2.42,0,0,1-1.67,2.489v.015a2.39,2.39,0,0,1,2.014,2.457c0,2.287-2.043,3-3.878,3s-3.879-.711-3.879-3m2.088-.231a1.792,1.792,0,0,0,3.581,0c0-1.02-.821-1.5-1.79-1.5s-1.791.479-1.791,1.5m.195-4.435a1.6,1.6,0,0,0,3.191,0,1.6,1.6,0,0,0-3.191,0" transform="translate(17.712 4.956)"/>
    <path id="Path_122" data-name="Path 122" d="M281.912,83.818V81.965l3.52-5.378h2.73V82.3h1.6v1.514h-1.6v3.074h-2.134V83.818Zm4.325-5.671-.029.031L283.523,82.3h2.714Z" transform="translate(18.285 4.967)"/>
    <path id="Path_123" data-name="Path 123" d="M101.58,307.939l-8.192-17.245-.058.055v17.19H89.163V287.185h6.611l7.906,16.326.056-.056v-16.27H107.9v20.754Z" transform="translate(5.783 18.627)"/>
    <path id="Path_124" data-name="Path 124" d="M109.953,287.185h13.911v3.45h-9.456v4.859h8.853v3.448h-8.853v5.547h9.773v3.45H109.953Z" transform="translate(7.132 18.627)"/>
    <path id="Path_125" data-name="Path 125" d="M137.025,287.185h5.03l3.622,15.609h.057l3.334-15.609h4.254l-5.289,20.754h-4.944l-3.736-15.808H139.3l-4.023,15.808h-5.059l-5.059-20.754h4.6l3.19,15.609H133Z" transform="translate(8.118 18.627)"/>
    <path id="Path_126" data-name="Path 126" d="M160.955,287.185h13.911v3.45H165.41v4.859h8.853v3.448H165.41v5.547h9.773v3.45H160.955Z" transform="translate(10.44 18.627)"/>
    <path id="Path_127" data-name="Path 127" d="M190.085,307.939l-8.192-17.245-.058.055v17.19h-4.168V287.185h6.611l7.906,16.326.056-.056v-16.27h4.168v20.754Z" transform="translate(11.524 18.627)"/>
    <path id="Path_128" data-name="Path 128" d="M208.583,300.347V296.9h8.508v10.376a21.215,21.215,0,0,1-4.657.919,44.073,44.073,0,0,1-4.771.2c-4.113,0-9.747-2.559-9.747-10.807s5.634-10.808,9.747-10.808c6.006,0,9.715,1.811,9.743,6.756h-4.744c0-2.646-1.724-3.536-4.168-3.536-3.937,0-5.833,2.9-5.833,7.589s1.9,7.587,5.833,7.587a19.433,19.433,0,0,0,4.139-.459v-4.37Z" transform="translate(12.837 18.601)"/>
    <path id="Path_129" data-name="Path 129" d="M219.761,307.939V287.185h4.455v17.3h9v3.45Z" transform="translate(14.254 18.627)"/>
    <path id="Path_130" data-name="Path 130" d="M233.261,307.939l7.5-20.754h5.289l7.214,20.754h-4.484l-1.5-4.4h-8.22l-1.554,4.4Zm12.905-7.847-2.845-8.853h-.059l-3.047,8.853Z" transform="translate(15.129 18.627)"/>
    <path id="Path_131" data-name="Path 131" d="M266.6,307.939l-8.192-17.245-.056.055v17.19h-4.168V287.185H260.8l7.9,16.326.058-.056v-16.27h4.168v20.754Z" transform="translate(16.487 18.627)"/>
    <path id="Path_132" data-name="Path 132" d="M275.163,287.185h7.072c6.466-.056,10.491,3.164,10.491,10.378S288.7,308,282.235,307.939h-7.072Zm4.455,17.3h2.3c5.289.059,6.064-3.62,6.064-6.926s-.775-6.985-6.064-6.928h-2.3Z" transform="translate(17.847 18.627)"/>
    <path id="Path_133" data-name="Path 133" d="M14.907,360.985c-5.565,0-9.342-3.764-9.342-9.524,0-2.77.8-4.928,2.186-7.863C3.28,342.712,0,339.667,0,335.071c0-5.649,5.417-11.242,13.118-11.242a8.843,8.843,0,0,1,3.528.776l-.348,1.106a10.5,10.5,0,0,0-3.081-.443c-5.267,0-10.235,5.205-10.235,11.3,0,2.769,1.392,5.093,5.217,5.87,5.963-9.692,16.6-18.606,22.261-18.606,2.335,0,3.975,1.549,3.975,4.207,0,5.206-4.87,10.855-14.162,14.066a25.587,25.587,0,0,1-5.763,1.606c-1.988,3.711-3.876,8.25-3.876,11.851a4.019,4.019,0,0,0,4.273,4.207c5.316,0,10.733-4.65,10.733-9.966,0-2.105-1.044-3.6-2.733-3.6-2.533,0-5.764,4.873-5.764,7.919a7.6,7.6,0,0,0,.2,1.66l-1.094.333a10.367,10.367,0,0,1-.6-3.155c0-4.82,3.131-8.2,6.659-8.2,2.733,0,4.621,2.16,4.621,5.04,0,5.815-5.913,11.185-12.024,11.185m6.111-27.963a58.2,58.2,0,0,0-5.863,9.3,22.641,22.641,0,0,0,11.08-5.152c3.38-3.044,6.509-7.751,6.509-10.353a1.679,1.679,0,0,0-1.888-1.772c-2.434,0-6.211,3.431-9.838,7.974" transform="translate(0 21.004)"/>
    <path id="Path_134" data-name="Path 134" d="M44.674,360.234a3.335,3.335,0,0,1-3.33-3.657c0-1.882.845-3.93,2.087-6.368-5.267,7.2-7.9,9.8-10.733,9.8-1.738,0-2.882-1.495-2.882-3.6,0-2.492,1.342-5.37,4.124-9.8-2.385,2.658-4.024,4.541-4.372,4.927-.745.832-.945,1.052-1.243,1.052a.472.472,0,0,1-.447-.5c0-.332.2-.555.8-1.218a120.723,120.723,0,0,0,7.6-9.47h6.062c-.5.886-8.4,14.676-8.4,15.782a.549.549,0,0,0,.5.609c1.888,0,9.192-9.359,13.465-16.391h5.863l-4.372,7.975c-3.081,5.648-3.925,7.088-3.925,8.251,0,.389.2.609.5.609.945,0,2.782-1.219,7.453-6.2.5-.554.7-.831.994-.831a.471.471,0,0,1,.5.443,1.879,1.879,0,0,1-.7,1.163c-1.888,1.826-6.26,7.421-9.54,7.421" transform="translate(1.808 22.144)"/>
    <path id="Path_135" data-name="Path 135" d="M57.038,358.818c2.484,0,5.018-4.763,5.018-8.584a60.707,60.707,0,0,0-.7-7.088c-.7.72-6.658,7.864-7.6,8.694-.7.666-.745.831-1.044.831a.481.481,0,0,1-.5-.5c0-.223.1-.39.4-.72,3.18-3.434,7.255-8.363,8.248-9.415,1.292-2.712,1.491-4.43,2.982-4.43a.908.908,0,0,1,.844,1c0,.5-.15.831-.8,1.5-.945.94-1.193,1.383-1.193,1.882,0,.831.4,1.772,1.392,3.378,2.136,3.488,2.633,4.541,2.633,6.645a6.875,6.875,0,0,1-.8,3.268,19.349,19.349,0,0,0,3.528-3.157c.447-.5.6-.609.844-.609a.527.527,0,0,1,.547.5c0,.554-.8,1.219-1.789,2.216-2.385,2.381-6.41,6.036-10.584,6.036-2.782,0-5.069-1.55-5.069-4.208A2.849,2.849,0,0,1,55.994,353a2.042,2.042,0,0,1,1.987,2.271,2.134,2.134,0,0,1-2.235,2.325,1.4,1.4,0,0,0,1.292,1.219" transform="translate(3.387 21.897)"/>
    <path id="Path_136" data-name="Path 136" d="M78.451,336.945,79.4,335.5h2.086l3.926-6.422h4.969L86.9,335.5h4.024l-.943,1.442H86.053c-8.347,14.786-11.179,20.211-11.179,21.1,0,.831.3,1.106.794,1.106.8,0,3.826-1.6,7.652-5.979.894-.942.994-1.052,1.292-1.052a.482.482,0,0,1,.5.5,4.456,4.456,0,0,1-1.243,1.716c-2.236,2.435-6.708,6.479-9.292,6.479-1.738,0-3.378-1.882-3.378-3.877,0-3.1,1.788-6.2,7.2-15.172-2.883,3.488-4.672,5.815-8.3,10.356-.447.609-.894,1.218-1.342,1.218a.46.46,0,0,1-.447-.443c0-.166.2-.609,1.094-1.661,2.037-2.714,6.658-8.141,11.031-14.286Z" transform="translate(4.431 21.344)"/>
    <path id="Path_137" data-name="Path 137" d="M90.017,359.818a5.391,5.391,0,0,1-5.218-5.649,8.454,8.454,0,0,1,1.143-4.1c-1.639,1.552-.794.719-2.185,2.161-.3.33-.5.387-.646.387-.249,0-.447-.166-.447-.553A11.1,11.1,0,0,1,84.1,350.3c2.982-3.214,8-8.474,12.869-8.474a4.513,4.513,0,0,1,4.821,4.653c0,2.934-1.69,6.2-4.422,9.357a.453.453,0,0,0,.5.277c.7,0,1.59-.5,5.168-4.484.348-.39.546-.5.745-.5a.516.516,0,0,1,.5.5c0,.33-.2.609-.746,1.162-.744.776-4.272,4.983-6.508,4.983a2.73,2.73,0,0,1-1.292-.387c-2.187,1.606-3.677,2.435-5.714,2.435m4.322-3.378a1.22,1.22,0,0,1-.248-.663,1.439,1.439,0,0,1,1.342-1.442.919.919,0,0,1,.745.277c2.782-3.821,3.925-6.533,3.925-8.8,0-1.549-.646-2.548-1.838-2.548-1.243,0-2.932,1.163-4.672,3.987-2.981,4.873-4.422,8.363-4.422,9.858,0,1,.447,1.493,1.442,1.493,1.242,0,2.434-.719,3.726-2.159" transform="translate(5.362 22.171)"/>
    <path id="Path_138" data-name="Path 138" d="M132.922,359.865a3.65,3.65,0,0,1-3.429-3.821c0-2.271,1.392-5.316,3.578-8.97,1.491-2.492,1.69-3.211,1.69-3.6a.455.455,0,0,0-.5-.5c-2.137,0-8.347,7.585-13.714,16.722h-5.763c7.1-12.128,8.2-14.674,8.2-15.948,0-.5-.149-.773-.6-.773-2.087,0-8.994,9.137-13.167,16.722h-5.764c3.031-5.7,8.347-14.84,8.347-15.836,0-.39-.2-.556-.5-.556-1.69,0-4.672,4.652-8.3,8.584-.348.443-.6.72-.844.72a.53.53,0,0,1-.5-.554.975.975,0,0,1,.348-.663c2.087-1.938,7.006-9.968,10.981-9.968,1.342,0,2.385,1,2.385,2.768,0,2.105-.7,3.877-2.784,7.974,6.41-8.914,8.8-11.075,11.181-11.075,1.788,0,2.781,1.442,2.781,3.434,0,1.716-.6,3.433-2.732,7.863,6.211-8.526,8.7-11.3,11.378-11.3,1.888,0,3.181,1.718,3.181,4.153,0,2.769-1.69,5.926-3.081,8.252a15.874,15.874,0,0,0-1.987,3.987c0,.223.3.5.7.5.794,0,2.484-1.109,6.758-5.759.7-.72.893-.942,1.193-.942a.474.474,0,0,1,.447.5,7.2,7.2,0,0,1-1.293,1.772c-2.136,2.548-5.664,6.313-8.2,6.313" transform="translate(6.594 22.123)"/>
    <path id="Path_139" data-name="Path 139" d="M176.775,361.118a3.4,3.4,0,0,1-3.627-3.71c0-2.658,1.59-5.26,5.217-7.642l.5.942c-2.534,1.936-4.571,4.151-4.571,6.645,0,1.493.7,2.1,1.64,2.1,3.627,0,7.751-8.3,7.751-12.847,0-2.158-.745-3.487-1.938-4.207a4.741,4.741,0,0,1-2.186.553c-.745,0-1.193-.332-1.193-.941,0-.72.546-1.163,1.69-1.163a5.554,5.554,0,0,1,2.136.443c2.285-1.217,5.714-5.536,5.714-10.686,0-1.828-.5-2.88-1.391-3.544-3.628,1.549-5.764,5.425-8.3,13.067-2.633,8.03-4.571,12.294-7.3,15.118a18.408,18.408,0,0,1-12.919,5.7c-4.571,0-7.751-2.935-7.751-6.535,0-2.878,2.037-5.37,4.074-5.37a2.974,2.974,0,0,1,2.833,3.044,3.027,3.027,0,0,1-2.435,3.1c-1.143.389-2.285.553-2.285,1.552,0,1.825,3.18,3.154,5.516,3.154,4.769,0,6.906-3.321,12.321-14.785,5.267-11.076,8-14.12,14.907-18.661a18.579,18.579,0,0,0-6.261-.886A27.389,27.389,0,0,0,164.4,329.5c-4.72,3.156-7.2,7.2-7.2,10.522,0,1.882,1.094,3.6,3.131,3.6s5.168-2.6,7.5-5.815a15.328,15.328,0,0,0,3.329-9.082l.845-.164a6.556,6.556,0,0,1,.2,1.826c0,8.583-4.273,14.784-11.08,14.784-3.23,0-5.218-1.992-5.218-5.149,0-8.75,11.975-15.672,22.757-15.672a23.839,23.839,0,0,1,8.248,1.329l2.98-1.163.348.942-1.888.829a6.722,6.722,0,0,1,3.925,5.979c0,3.987-3.577,7.7-8.894,9.582,3.329,1.992,5.019,4.041,5.019,7.419,0,5.316-5.913,11.851-11.627,11.851" transform="translate(9.745 21.037)"/>
    <path id="Path_140" data-name="Path 140" d="M195.679,359.818a5.391,5.391,0,0,1-5.217-5.649,8.443,8.443,0,0,1,1.143-4.1c-1.639,1.552-.794.719-2.185,2.161-.3.33-.5.387-.646.387-.248,0-.447-.166-.447-.553a11.1,11.1,0,0,1,1.441-1.772c2.982-3.214,8-8.474,12.87-8.474a4.512,4.512,0,0,1,4.819,4.653c0,2.934-1.689,6.2-4.421,9.357a.452.452,0,0,0,.5.277c.7,0,1.591-.5,5.168-4.484.347-.39.547-.5.745-.5a.514.514,0,0,1,.5.5c0,.33-.2.609-.744,1.162-.745.776-4.273,4.983-6.509,4.983a2.733,2.733,0,0,1-1.292-.387c-2.186,1.606-3.677,2.435-5.715,2.435M200,356.44a1.22,1.22,0,0,1-.248-.663,1.438,1.438,0,0,1,1.341-1.442.92.92,0,0,1,.746.277c2.782-3.821,3.925-6.533,3.925-8.8,0-1.549-.645-2.548-1.838-2.548-1.243,0-2.932,1.163-4.672,3.987-2.981,4.873-4.422,8.363-4.422,9.858,0,1,.447,1.493,1.442,1.493,1.242,0,2.434-.719,3.726-2.159" transform="translate(12.215 22.171)"/>
    <path id="Path_141" data-name="Path 141" d="M214.489,359.818a5.391,5.391,0,0,1-5.217-5.649,8.443,8.443,0,0,1,1.143-4.1c-1.64,1.552-.794.719-2.186,2.161-.3.33-.5.387-.645.387-.248,0-.447-.166-.447-.553a11.1,11.1,0,0,1,1.441-1.772c2.982-3.214,8-8.474,12.87-8.474a4.512,4.512,0,0,1,4.818,4.653c0,2.934-1.689,6.2-4.421,9.357a.452.452,0,0,0,.5.277c.7,0,1.591-.5,5.168-4.484.347-.39.547-.5.745-.5a.514.514,0,0,1,.5.5c0,.33-.2.609-.744,1.162-.745.776-4.273,4.983-6.51,4.983a2.733,2.733,0,0,1-1.292-.387c-2.186,1.606-3.677,2.435-5.715,2.435m4.323-3.378a1.22,1.22,0,0,1-.248-.663,1.438,1.438,0,0,1,1.341-1.442.92.92,0,0,1,.746.277c2.782-3.821,3.925-6.533,3.925-8.8,0-1.549-.645-2.548-1.839-2.548-1.242,0-2.93,1.163-4.669,3.987-2.982,4.873-4.423,8.363-4.423,9.858,0,1,.447,1.493,1.442,1.493,1.242,0,2.434-.719,3.726-2.159" transform="translate(13.435 22.171)"/>
    <path id="Path_142" data-name="Path 142" d="M236.123,336.945l.943-1.442h2.087l3.925-6.422h4.969L244.57,335.5H248.6l-.945,1.442h-3.925c-8.347,14.786-11.18,20.211-11.18,21.1,0,.831.3,1.106.8,1.106.794,0,3.826-1.6,7.651-5.979.894-.942.995-1.052,1.292-1.052a.482.482,0,0,1,.5.5,4.461,4.461,0,0,1-1.242,1.716c-2.236,2.435-6.709,6.479-9.292,6.479-1.739,0-3.379-1.882-3.379-3.877,0-3.1,1.789-6.2,7.2-15.172-2.883,3.488-4.672,5.815-8.3,10.356-.447.609-.895,1.218-1.342,1.218a.46.46,0,0,1-.447-.443c0-.166.2-.609,1.094-1.661,2.037-2.714,6.659-8.141,11.031-14.286Z" transform="translate(14.658 21.344)"/>
    <path id="Path_143" data-name="Path 143" d="M271.634,359.865a3.65,3.65,0,0,1-3.429-3.821c0-2.271,1.392-5.316,3.578-8.97,1.49-2.492,1.689-3.211,1.689-3.6a.455.455,0,0,0-.5-.5c-2.137,0-8.348,7.585-13.714,16.722H253.5c7.106-12.128,8.2-14.674,8.2-15.948,0-.5-.149-.773-.6-.773-2.087,0-8.993,9.137-13.167,16.722h-5.764c3.032-5.7,8.348-14.84,8.348-15.836,0-.39-.2-.556-.5-.556-1.69,0-4.672,4.652-8.3,8.584-.347.443-.6.72-.844.72a.53.53,0,0,1-.5-.554.973.973,0,0,1,.349-.663c2.086-1.938,7.006-9.968,10.98-9.968,1.342,0,2.385,1,2.385,2.768,0,2.105-.7,3.877-2.782,7.974,6.411-8.914,8.795-11.075,11.18-11.075,1.789,0,2.782,1.442,2.782,3.434,0,1.716-.6,3.433-2.732,7.863,6.21-8.526,8.695-11.3,11.378-11.3,1.888,0,3.181,1.718,3.181,4.153,0,2.769-1.69,5.926-3.082,8.252a15.913,15.913,0,0,0-1.987,3.987c0,.223.3.5.7.5.794,0,2.484-1.109,6.758-5.759.7-.72.895-.942,1.193-.942a.473.473,0,0,1,.447.5,7.17,7.17,0,0,1-1.293,1.772c-2.136,2.548-5.664,6.313-8.2,6.313" transform="translate(15.591 22.123)"/>
    <path id="Path_144" data-name="Path 144" d="M293.764,360a3.139,3.139,0,0,1-2.932-3.212,11.712,11.712,0,0,1,.248-1.994c-3.18,3.71-5.168,5.206-7.6,5.206s-4.422-2.159-4.422-5.372a8.991,8.991,0,0,1,1.193-4.264c-2.136,2.161-2.385,2.161-2.484,2.161a.473.473,0,0,1-.447-.5c0-.332.2-.609.7-1.106,3.28-3.047,8.746-9.3,13.862-9.3,2.236,0,3.231,1.05,3.876,2.989l1.342-2.382h5.466l-2.584,4.6c-4.67,8.251-5.664,9.8-5.664,10.632,0,.389.248.886.7.886,1.093,0,4.819-3.211,7.7-6.256.547-.555.745-.775,1.045-.775a.459.459,0,0,1,.447.443c0,.387-.249.775-.895,1.384-.846.831-6.062,6.866-9.54,6.866m.745-14.342c0-1.5-.8-2.381-1.79-2.381-.845,0-2.285,1.108-3.378,2.658-3.678,5.372-5.814,9.579-5.814,11.408a1.068,1.068,0,0,0,1.044,1.218c2.634,0,9.938-9.137,9.938-12.9" transform="translate(17.987 22.157)"/>
    <path id="Path_145" data-name="Path 145" d="M315.958,361.02a2.534,2.534,0,0,1-2.831-2.714,8.835,8.835,0,0,1,.844-3.321c.7-1.716,1.64-2.991,1.64-3.93a.986.986,0,0,0-.4-.722,4.431,4.431,0,0,1-1.938.609,4.088,4.088,0,0,1-.893-.166c-2.386,3.987-2.982,5.206-5.566,9.913h-5.366l11.925-21.152a138.111,138.111,0,0,1-10.235,13.178c-.647.72-.745.942-1.094.942a.529.529,0,0,1-.5-.554c0-.276.2-.5.546-.886,1.441-1.441,13.068-15.838,18.931-26.359h5.366l-3.081,5.316c-3.825,6.534-5.317,9.636-9.937,17.609a5.232,5.232,0,0,0,1.143.11c1.342,0,2.335-.553,4.322-3.155,1.69-2.1,3.18-3.323,4.722-3.323a2.613,2.613,0,0,1,2.484,2.769,2.4,2.4,0,0,1-2.187,2.6,2.019,2.019,0,0,1-1.887-2.049,4.537,4.537,0,0,1,.347-1.552c-.945.554-1.193.776-2.633,2.825a8.855,8.855,0,0,1-2.534,2.492,4.122,4.122,0,0,1,2.186,3.654,8.613,8.613,0,0,1-.945,3.657,3.672,3.672,0,0,0-.3,1.216c0,.443.248.61.7.61.894,0,3.478-1.549,7.4-5.649.7-.72.8-.94,1.144-.94s.5.166.5.554c0,.223-.446.719-1.193,1.551-3.13,3.487-6.508,6.865-10.683,6.865" transform="translate(19.552 21.135)"/>
    <path id="Path_146" data-name="Path 146" d="M332.643,360c-3.18,0-6.062-1.992-6.062-5.372a10.014,10.014,0,0,1,1.194-4.318,15.013,15.013,0,0,0-1.292,1.383c-.6.665-.8.886-1.095.886a.471.471,0,0,1-.5-.443c0-.5,2.682-3.212,3.974-4.6,2.732-2.935,6.857-5.979,10.832-5.979a3.687,3.687,0,0,1,3.627,3.877c0,3.93-6.458,7.974-11.279,7.974a9.6,9.6,0,0,0-.992,3.544c0,1.053.6,1.606,1.987,1.606,3.13,0,6.509-1.883,10.385-5.981.7-.72,1.292-1.383,1.59-1.383a.53.53,0,0,1,.5.553c0,.443-.8,1.274-1.889,2.271-2.582,2.435-6.409,5.98-10.981,5.98m8.248-16.169a1.139,1.139,0,0,0-1.242-1.052c-1.392,0-2.783,1-7.007,9.191,3.876,0,8.248-5.038,8.248-8.139" transform="translate(21.073 22.154)"/>
    <path id="Path_147" data-name="Path 147" d="M351.1,360.19c-1.938,0-3.379-1.549-3.379-3.987,0-2.6.945-3.821,4.721-9.524a3.849,3.849,0,0,0,.895-1.938c0-.775-.6-1.329-1.739-1.884-1.442,2.1-5.069,6.59-6.858,8.639-.7.83-1.093,1.218-1.391,1.218a.482.482,0,0,1-.5-.5c0-.333.248-.5,1.243-1.662,3.379-3.821,6.409-7.641,6.409-8.583a4.818,4.818,0,0,1-.2-1.274c0-1.052.547-2.049,1.491-2.049a1.009,1.009,0,0,1,.994,1.053,3.551,3.551,0,0,1-.347,1.329,1.4,1.4,0,0,0-.1.5c0,.389.5.721,2.385,1.772,1.59.886,2.633,1.718,2.633,3.213,0,1.66-1.441,3.711-2.732,5.926s-2.633,4.317-2.633,5.2a.641.641,0,0,0,.547.666c.992,0,2.532-1.384,6.16-5.593.944-1.052,1.094-1.329,1.441-1.329.3,0,.447.277.447.554,0,.221-.2.663-.994,1.44-.7.719-4.82,6.811-8.5,6.811" transform="translate(22.238 21.965)"/>
    <path id="Path_148" data-name="Path 148" d="M362.958,358.818c2.484,0,5.019-4.763,5.019-8.584a61.007,61.007,0,0,0-.7-7.088c-.7.72-6.659,7.864-7.6,8.694-.7.666-.745.831-1.044.831a.481.481,0,0,1-.5-.5c0-.223.1-.39.4-.72,3.18-3.434,7.254-8.363,8.248-9.415,1.292-2.712,1.49-4.43,2.982-4.43a.907.907,0,0,1,.843,1c0,.5-.148.831-.794,1.5-.943.94-1.193,1.383-1.193,1.882,0,.831.4,1.772,1.392,3.378,2.136,3.488,2.633,4.541,2.633,6.645a6.887,6.887,0,0,1-.794,3.268,19.437,19.437,0,0,0,3.527-3.157c.447-.5.6-.609.844-.609a.527.527,0,0,1,.547.5c0,.554-.8,1.219-1.789,2.216-2.385,2.381-6.411,6.036-10.584,6.036-2.782,0-5.068-1.55-5.068-4.208A2.848,2.848,0,0,1,361.914,353a2.042,2.042,0,0,1,1.988,2.271,2.135,2.135,0,0,1-2.237,2.325,1.405,1.405,0,0,0,1.293,1.219" transform="translate(23.229 21.897)"/>
  </g>
</svg>
